<svg width="99" height="99" viewBox="0 0 99 99" fill="none" xmlns="http://www.w3.org/2000/svg">
<g clip-path="url(#clip0_4_126)">
<path d="M49.3927 0.708476C22.7656 0.758368 0.898055 22.5161 0.708467 49.1483C0.649886 56.2001 2.12448 63.1804 5.03018 69.606C7.93588 76.0316 12.2033 81.749 17.5369 86.3625C17.6933 86.4979 17.8157 86.6681 17.8943 86.8595C17.9729 87.0508 18.0055 87.2579 17.9895 87.4642C17.9735 87.6704 17.9093 87.87 17.8021 88.047C17.6949 88.2239 17.5477 88.3732 17.3723 88.4829L7.62844 94.5497C7.25619 94.783 6.9699 95.1311 6.81274 95.5413C6.65557 95.9516 6.63605 96.4018 6.75712 96.8241C6.87818 97.2465 7.13327 97.618 7.48392 97.8827C7.83458 98.1474 8.26178 98.2909 8.70111 98.2915H48.8938C75.8952 98.2915 98.2167 76.6087 98.2866 49.6123C98.301 43.1869 97.0463 36.822 94.5944 30.8828C92.1425 24.9436 88.5417 19.5472 83.9988 15.0033C79.4558 10.4594 74.0601 6.85757 68.1215 4.40446C62.1828 1.95135 55.8181 0.69532 49.3927 0.708476ZM49.8917 79.647C45.8246 79.7034 41.7882 78.9358 38.0258 77.3905C34.2633 75.8452 30.8526 73.5542 27.9992 70.6556C25.1457 67.7569 22.9087 64.3106 21.4227 60.5243C19.9368 56.738 19.2327 52.6901 19.353 48.6244C19.787 33.2578 33.133 19.8569 48.4997 19.363C52.458 19.2716 56.3955 19.9607 60.0875 21.391C63.7795 22.8214 67.1536 24.9649 70.0172 27.6992C72.8807 30.4335 75.1777 33.7051 76.7769 37.3271C78.3762 40.9492 79.2463 44.8507 79.3377 48.809C79.4291 52.7673 78.74 56.7049 77.3096 60.3969C75.8793 64.0888 73.7358 67.4629 71.0014 70.3265C68.2671 73.1901 64.9956 75.4871 61.3735 77.0863C57.7515 78.6855 53.85 79.5556 49.8917 79.647Z" fill="#181818"/>
<path d="M49.5972 33.8465C49.3188 31.4016 49.6249 28.9256 50.4903 26.6222C50.5474 26.4645 50.565 26.2952 50.5416 26.1291C50.5182 25.963 50.4545 25.8052 50.3561 25.6694C50.2577 25.5336 50.1275 25.4239 49.977 25.35C49.8265 25.276 49.6601 25.24 49.4925 25.2452C44.696 25.2462 40.0076 26.6694 36.02 29.3349C32.0323 32.0003 28.9246 35.7884 27.0898 40.22C25.255 44.6516 24.7754 49.5278 25.7117 54.232C26.6481 58.9361 28.9583 63.257 32.3502 66.6483C35.7422 70.0395 40.0635 72.3488 44.7679 73.2842C49.4723 74.2196 54.3483 73.739 58.7796 71.9033C63.2108 70.0675 66.9982 66.959 69.6629 62.9709C72.3275 58.9827 73.7498 54.2939 73.7498 49.4975C73.7487 48.5355 73.6921 47.5743 73.5802 46.6188C73.5575 46.4548 73.4963 46.2986 73.4016 46.1629C73.3069 46.0271 73.1814 45.9158 73.0354 45.8379C72.8894 45.76 72.727 45.7178 72.5615 45.7148C72.396 45.7118 72.2322 45.748 72.0834 45.8205C69.4296 47.1976 66.432 47.7715 63.4571 47.4719C56.7218 46.8283 50.3456 40.5619 49.5972 33.8465Z" fill="#EDAB00"/>
</g>
<defs>
<clipPath id="clip0_4_126">
<rect width="99" height="99" fill="white"/>
</clipPath>
</defs>
</svg>
