<svg id="Layer_1" data-name="Layer 1" xmlns="http://www.w3.org/2000/svg" viewBox="0 0 198.43 198.43"><defs><style>.cls-1{fill:#181818;}.cls-2{fill:#e5b232;}</style></defs><path class="cls-1" d="M99,1.42C45.63,1.52,1.8,45.13,1.42,98.51A97.55,97.55,0,0,0,35.15,173.1a2.65,2.65,0,0,1-.33,4.25L15.29,189.51a4.06,4.06,0,0,0,2.15,7.5H98c54.12,0,98.86-43.46,99-97.57A97.8,97.8,0,0,0,99,1.42Zm1,158.22A60.4,60.4,0,0,1,38.79,97.46c.87-30.8,27.62-57.66,58.42-58.65A60.43,60.43,0,1,1,100,159.64Z"/><path class="cls-2" d="M99.41,67.84a31.15,31.15,0,0,1,1.79-14.48,2.06,2.06,0,0,0-2-2.76h0a48.61,48.61,0,1,0,48.62,48.61,50.08,50.08,0,0,0-.34-5.77,2.1,2.1,0,0,0-3-1.6,30.83,30.83,0,0,1-17.29,3.31C113.69,93.86,100.91,81.3,99.41,67.84Z"/></svg>