<svg width="416" height="89" viewBox="0 0 416 89" fill="none" xmlns="http://www.w3.org/2000/svg">
<path d="M42.62 4.65999C34.5388 4.67713 26.6555 7.16129 20.0245 11.7802C13.3934 16.3991 8.3307 22.9326 5.51347 30.5068C2.69624 38.0811 2.25881 46.3349 4.25967 54.1645C6.26053 61.994 10.6043 69.026 16.71 74.32C16.8375 74.4303 16.9375 74.569 17.0018 74.7249C17.0661 74.8808 17.093 75.0496 17.0804 75.2177C17.0678 75.3859 17.0159 75.5487 16.929 75.6933C16.8421 75.8378 16.7226 75.96 16.58 76.05L8.66001 81C8.37784 81.1975 8.16456 81.4783 8.05005 81.8032C7.93554 82.128 7.92555 82.4805 8.02148 82.8113C8.11741 83.1421 8.31445 83.4346 8.58498 83.6478C8.8555 83.8609 9.18596 83.9841 9.53001 84H42.23C64.23 84 82.34 66.36 82.39 44.4C82.3966 39.1769 81.3722 34.0038 79.3755 29.1774C77.3789 24.351 74.4492 19.9662 70.7545 16.2743C67.0598 12.5824 62.6728 9.656 57.8448 7.66298C53.0169 5.66996 47.8431 4.64946 42.62 4.65999ZM43 68.86C39.695 68.9005 36.416 68.2724 33.36 67.0134C30.3039 65.7544 27.5339 63.8906 25.2165 61.534C22.8991 59.1773 21.082 56.3764 19.8745 53.2997C18.667 50.2229 18.0941 46.9338 18.19 43.63C18.54 31.13 29.4 20.24 41.89 19.83C45.1736 19.6454 48.4607 20.1232 51.5558 21.235C54.6509 22.3469 57.4908 24.07 59.9063 26.3018C62.3218 28.5336 64.2637 31.2286 65.6164 34.2263C66.969 37.224 67.7048 40.4631 67.78 43.751C67.8551 47.0389 67.2681 50.3083 66.0538 53.3647C64.8395 56.4211 63.0228 59.2019 60.7118 61.5418C58.4007 63.8816 55.6426 65.7327 52.6015 66.9848C49.5605 68.2369 46.2986 68.8644 43.01 68.83L43 68.86Z" fill="#181818"/>
<path d="M42.79 31.61C42.5562 29.6239 42.8031 27.6107 43.51 25.74C43.5547 25.6135 43.5685 25.478 43.5501 25.3451C43.5318 25.2121 43.4818 25.0855 43.4044 24.9758C43.3271 24.8661 43.2246 24.7766 43.1055 24.7147C42.9864 24.6528 42.8542 24.6203 42.72 24.62C38.8165 24.616 34.9995 25.7701 31.7521 27.9361C28.5047 30.1021 25.9727 33.1827 24.4766 36.7881C22.9805 40.3935 22.5875 44.3617 23.3474 48.1905C24.1072 52.0194 25.9857 55.5368 28.7452 58.2977C31.5047 61.0586 35.0212 62.9389 38.8496 63.7006C42.6781 64.4624 46.6465 64.0714 50.2526 62.5772C53.8588 61.0829 56.9407 58.5525 59.1083 55.3062C61.276 52.0599 62.432 48.2435 62.43 44.34C62.4288 43.5579 62.382 42.7766 62.29 42C62.2728 41.8646 62.2233 41.7354 62.1457 41.6232C62.068 41.511 61.9645 41.4192 61.8439 41.3554C61.7232 41.2917 61.589 41.2579 61.4526 41.2569C61.3161 41.256 61.1815 41.2879 61.06 41.35C58.9068 42.4688 56.4748 42.9379 54.06 42.7C51.2427 42.2991 48.6281 41.0057 46.5998 39.0098C44.5715 37.0139 43.2362 34.4205 42.79 31.61Z" fill="#EDAB00"/>
<path d="M113.49 54.68V24.25H102.87V64.44H108.84H113.49H130.02V54.68H113.49Z" fill="#181818"/>
<path d="M145.23 54.68V49.05H158.43V39.58H145.23V34.01H161.53V24.25H145.23H142.07H134.61V64.44H142.07H145.23H161.94V54.68H145.23Z" fill="#181818"/>
<path d="M195.12 24.25V46.35L179.44 24.25H168.25V64.44L178.87 64.49V41.54L195.12 64.44H205.74V24.25H195.12Z" fill="#181818"/>
<path d="M226.69 65.12C223.014 65.1227 219.409 64.1123 216.27 62.2C214.891 61.3619 213.659 60.3047 212.62 59.07C211.718 58.0142 211.123 56.7309 210.9 55.36L221.46 52.44C221.815 53.4027 222.432 54.2476 223.24 54.88C224.191 55.5847 225.337 55.9762 226.52 56C227.537 56.0483 228.54 55.7446 229.36 55.14C229.692 54.9057 229.971 54.6042 230.179 54.2551C230.387 53.906 230.52 53.5171 230.568 53.1135C230.616 52.71 230.579 52.3008 230.458 51.9126C230.338 51.5244 230.138 51.1658 229.87 50.86C229.275 50.1977 228.483 49.7452 227.61 49.57L221.61 48.02C219.695 47.5535 217.891 46.7142 216.3 45.55C214.862 44.4785 213.7 43.0799 212.91 41.47C212.112 39.7868 211.712 37.9426 211.74 36.08C211.74 32.14 213.05 29.0667 215.67 26.86C218.29 24.6533 221.973 23.5533 226.72 23.56C228.989 23.5296 231.249 23.8673 233.41 24.56C235.294 25.1777 237.007 26.2292 238.41 27.63C239.922 29.2061 241.102 31.0696 241.88 33.11L231.38 36.11C231.111 35.2254 230.602 34.4327 229.91 33.82C229.484 33.4248 228.983 33.1193 228.437 32.9217C227.891 32.7242 227.31 32.6385 226.73 32.67C225.661 32.6082 224.604 32.9115 223.73 33.53C223.371 33.8421 223.089 34.2326 222.905 34.6714C222.721 35.1101 222.641 35.5852 222.67 36.06C222.673 36.4047 222.751 36.7447 222.9 37.0558C223.048 37.3668 223.263 37.6414 223.53 37.86C224.246 38.4464 225.094 38.8512 226 39.04L232 40.61C234.84 41.2385 237.374 42.8324 239.17 45.12C240.875 47.3066 241.789 50.0071 241.76 52.78C241.849 55.1445 241.236 57.4825 240 59.5C238.725 61.3857 236.914 62.8453 234.8 63.69C232.219 64.7026 229.462 65.1889 226.69 65.12Z" fill="#181818"/>
<path d="M257.69 54.68V24.25H247.07V64.44H253.04H257.69H274.22V54.68H257.69Z" fill="#181818"/>
<path d="M297.76 65.12C293.871 65.2017 290.025 64.2859 286.59 62.46C283.438 60.7468 280.814 58.2054 279 55.11C277.132 51.8541 276.182 48.1529 276.25 44.4C276.177 40.6307 277.127 36.9121 279 33.64C280.813 30.5478 283.433 28.0071 286.58 26.29C290.02 24.535 293.828 23.6201 297.69 23.6201C301.552 23.6201 305.36 24.535 308.8 26.29C311.947 28.0071 314.567 30.5478 316.38 33.64C318.253 36.9121 319.203 40.6307 319.13 44.4C319.196 48.1488 318.257 51.8468 316.41 55.11C314.614 58.2051 312.002 60.7476 308.86 62.46C305.45 64.2856 301.627 65.2017 297.76 65.12ZM297.76 55.37C299.668 55.4216 301.553 54.9477 303.21 54C304.769 53.0714 306.039 51.7282 306.88 50.12C307.786 48.3662 308.24 46.4137 308.2 44.44C308.236 42.4548 307.775 40.492 306.86 38.73C306 37.105 304.705 35.7512 303.12 34.82C301.454 33.8661 299.56 33.3822 297.64 33.42C295.74 33.3871 293.867 33.871 292.22 34.82C290.635 35.7512 289.34 37.105 288.48 38.73C287.56 40.4902 287.099 42.4542 287.14 44.44C287.101 46.4196 287.573 48.3757 288.51 50.12C289.393 51.7269 290.692 53.067 292.27 54C293.942 54.9466 295.84 55.4202 297.76 55.37Z" fill="#181818"/>
<path d="M407.57 24.25H402.06H400.91L391.21 38.62L381.51 24.25H380.36H374.97H369.74V64.44H380.36V40.69L391.27 56.4L402.06 40.69V64.44H412.68V24.25H407.57Z" fill="#181818"/>
<path d="M343.38 23.62C339.153 23.6282 335.03 24.9269 331.562 27.3424C328.094 29.7578 325.446 33.1748 323.972 37.1362C322.499 41.0976 322.27 45.4145 323.317 49.5094C324.364 53.6042 326.636 57.2818 329.83 60.05C329.897 60.1074 329.949 60.1796 329.982 60.2608C330.016 60.3421 330.03 60.4301 330.023 60.5177C330.016 60.6053 329.989 60.6901 329.943 60.7652C329.897 60.8403 329.835 60.9036 329.76 60.95L325.62 63.53C325.462 63.6286 325.34 63.7759 325.273 63.9498C325.205 64.1237 325.196 64.3148 325.247 64.4942C325.298 64.6736 325.406 64.8317 325.554 64.9445C325.702 65.0574 325.884 65.119 326.07 65.12H343.17C348.673 65.1478 353.962 62.9884 357.873 59.1167C361.784 55.245 363.997 49.9782 364.025 44.475C364.053 38.9718 361.893 33.6828 358.022 29.7718C354.15 25.8607 348.883 23.6478 343.38 23.62ZM343.58 57.2C341.849 57.2237 340.132 56.8969 338.531 56.2393C336.93 55.5818 335.478 54.6071 334.263 53.3739C333.049 52.1406 332.097 50.6744 331.463 49.0635C330.83 47.4525 330.53 45.7301 330.58 44C330.752 40.7591 332.115 37.696 334.408 35.3983C336.7 33.1006 339.76 31.7302 343 31.55C344.701 31.4836 346.399 31.7565 347.993 32.3528C349.588 32.9491 351.048 33.8568 352.289 35.023C353.529 36.1892 354.525 37.5907 355.218 39.1457C355.911 40.7007 356.288 42.3781 356.327 44.0802C356.365 45.7823 356.065 47.4751 355.442 49.0598C354.82 50.6445 353.889 52.0896 352.702 53.3107C351.516 54.5318 350.098 55.5046 348.532 56.1723C346.966 56.84 345.283 57.1894 343.58 57.2Z" fill="#181818"/>
<path d="M343.46 37.71C343.345 36.671 343.475 35.6195 343.84 34.64C343.864 34.5744 343.872 34.5038 343.863 34.4344C343.854 34.365 343.829 34.2989 343.788 34.2417C343.748 34.1846 343.694 34.1381 343.632 34.1065C343.569 34.0748 343.5 34.0588 343.43 34.06C341.391 34.062 339.399 34.6683 337.705 35.8024C336.011 36.9365 334.691 38.5474 333.912 40.4315C333.133 42.3155 332.93 44.3882 333.329 46.3875C333.728 48.3868 334.711 50.2229 336.153 51.6638C337.596 53.1047 339.433 54.0856 341.432 54.4826C343.432 54.8796 345.504 54.6749 347.388 53.8942C349.271 53.1136 350.881 51.7921 352.013 50.0969C353.146 48.4016 353.75 46.4087 353.75 44.37C353.749 43.9621 353.722 43.5546 353.67 43.15C353.662 43.0792 353.637 43.0114 353.596 42.9525C353.556 42.8936 353.502 42.8453 353.439 42.8118C353.376 42.7784 353.306 42.7607 353.235 42.7604C353.164 42.7601 353.093 42.7771 353.03 42.81C351.901 43.3947 350.625 43.6379 349.36 43.51C347.888 43.2956 346.522 42.6178 345.461 41.5749C344.401 40.532 343.7 39.1782 343.46 37.71Z" fill="#EDAB00"/>
</svg>
